<?xml version="1.0" encoding="UTF-8" standalone="no"?>
<svg
   xmlns:osb="http://www.openswatchbook.org/uri/2009/osb"
   xmlns:dc="http://purl.org/dc/elements/1.1/"
   xmlns:cc="http://creativecommons.org/ns#"
   xmlns:rdf="http://www.w3.org/1999/02/22-rdf-syntax-ns#"
   xmlns:svg="http://www.w3.org/2000/svg"
   xmlns="http://www.w3.org/2000/svg"
   xmlns:sodipodi="http://sodipodi.sourceforge.net/DTD/sodipodi-0.dtd"
   xmlns:inkscape="http://www.inkscape.org/namespaces/inkscape"
   version="1.0"
   width="31"
   height="31"
   viewBox="0 0 24.8 24.8"
   preserveAspectRatio="xMidYMid meet"
   id="svg2"
   inkscape:version="0.91 r"
   sodipodi:docname="icon.svg">
  <path
     sodipodi:nodetypes="ccccccccccccccccccccccccscccccccccccccccccccccscscssssssssssscccccsccccccccc"
     d="m 7.2919603,0.60100383 c 0.00642,0.2066039 -0.1109253,0.1745314 3.2524747,1.05160707 2.995665,0.7789283 3.653537,0.9775504 3.900302,1.1770963 0.135196,0.1059807 0.143528,0.1271503 0.02465,0.2908302 -0.06688,0.096231 -0.272763,0.2100148 -0.4653,0.2531644 -0.18524,0.042115 -0.337489,0.1123705 -0.336555,0.152508 0.0061,0.1863649 0.318097,0.4951797 0.680274,0.6647857 0.394062,0.1937376 0.418338,0.2269008 0.623234,0.8242217 0.119739,0.3521736 0.361901,0.9016261 0.52759,1.2374775 0.389118,0.7805526 0.735139,1.818941 1.028383,2.220174 0.118718,0.1679818 0.20823,0.3568708 0.193484,0.4170678 -0.01721,0.07015 -0.168319,0.198451 -0.32909,0.300383 -0.168063,0.09922 -0.567579,0.360579 -0.884294,0.5776131 -1.29127,0.9022904 -2.087336,1.2173664 -3.011462,1.2069624 -0.54232,-0.004 -0.916405,-0.172591 -1.960451,-0.835358 C 8.7529948,8.9999065 7.1461235,8.7366815 6.1279285,9.3717655 5.7673937,9.6045956 5.3499147,9.2471275 5.0053202,8.9584705 4.6146024,8.6290425 5.0638662,9.8752156 5.451938,10.280677 l -0.127194,0.141997 0.1080466,0.686587 c -0.3603716,1.113511 -0.312148,2.222171 0.1251563,3.340473 l 0.1788237,0.444531 -0.2291659,0.218036 c -0.1195009,0.129294 -0.2680703,0.214347 -0.3190894,0.194242 -0.058315,-0.02105 -0.3161942,0.01604 -0.5887668,0.0882 -0.2725586,0.06915 -0.7201284,0.102432 -0.9899767,0.06274 -0.2795793,-0.03168 -0.5324679,-0.0423 -0.571487,-0.01603 -0.029192,0.02105 -0.3618054,0.727654 -0.7287792,1.574299 -0.6727606,1.541282 -1.2154287,2.616266 -1.48375018,2.929278 -0.11466592,0.141922 -0.15153552,0.292465 -0.19162297,0.750346 -0.0202323,0.311468 -0.0942483,0.711597 -0.16764126,0.880903 -0.15662158,0.379061 -0.0596688,0.505228 0.40239337,0.509978 l 0.34045794,0.01081 -0.1521254,-0.422881 c -0.21009374,-0.577753 -0.094826,-0.950841 0.6353044,-2.106329 0.654454,-1.042148 1.5672289,-2.291067 1.7498676,-2.384519 0.06577,-0.0423 0.3891046,0.006 0.7196153,0.09501 0.6877649,0.192639 1.3783875,0.210639 2.2445379,0.06656 0.885648,-0.158961 1.491956,-0.44926 2.3668459,-1.151738 l 0.7871672,-0.637729 0.5512366,0.326261 c 0.514767,0.312009 0.553663,0.316761 0.753496,0.152548 0.19739,-0.153549 0.272734,-0.135108 1.113372,0.183817 1.535497,0.580621 2.437521,0.681309 3.729633,0.395961 0.888189,-0.201679 1.375172,-0.429217 2.671102,-1.252427 0.740558,-0.479891 0.945061,-0.564825 1.280589,-0.532251 0.400488,0.03689 0.689878,-0.006 1.163906,-0.266084 0.302968,-0.165177 0.681376,-0.418111 1.212433,-0.793423 0.101463,-0.07236 0.20096,-0.142525 0.297085,-0.210119 0.582368,-0.405983 1.041739,-0.696022 1.079274,-0.681288 0.051,0.01603 0.0342,0.156756 -0.03493,0.338389 -0.06555,0.172592 -0.374638,1.053334 -0.68844,1.964446 -0.734933,2.13379 -0.763799,2.183362 -1.255942,2.292069 -0.225781,0.04752 -0.462232,0.06074 -0.527824,0.03689 -0.07287,-0.02646 -0.148643,0.006 -0.167973,0.06594 -0.07151,0.214869 -0.231289,1.043051 -0.211975,1.094629 0.0095,0.02646 0.231374,-0.09602 0.489524,-0.270314 0.268066,-0.181012 0.628212,-0.351078 0.810816,-0.375354 0.362366,-0.04751 0.323382,0.01604 0.903709,-1.505723 0.200747,-0.526336 0.837136,-1.765293 1.174042,-2.602756 0.886924,-2.204732 0.71199,-2.169733 0.575154,-2.35778 -0.221841,-0.305154 -1.845875,0.002 -3.284779,0.626325 l -0.579445,0.246018 0.06085,-0.966858 c 0.04102,-0.820445 0.01514,-1.138849 -0.170087,-1.9490705 C 20.154266,7.9795467 19.983668,6.5477278 18.780396,5.7800011 18.582704,5.6577974 18.4159,5.5378302 18.399813,5.5160687 18.383514,5.4932014 18.502538,5.3301181 18.659553,5.139642 18.839266,4.9308162 19.052208,4.7968279 19.252961,4.7651776 19.662824,4.723086 19.70799,4.6854887 19.934449,4.2340526 20.146142,3.8114615 20.123454,3.5824806 19.858226,3.5358262 19.148493,3.4146186 18.268142,3.0496531 17.979226,2.7428749 17.626461,2.378359 16.921208,2.1543335 15.283148,1.8696559 10.259728,0.994684 8.4342529,0.67095063 7.8953579,0.55612676 7.3724014,0.45323567 7.2870261,0.45495673 7.2916958,0.60008323 Z"
     id="path4504"
     inkscape:connector-curvature="0"
     style="fill:#0066bc;fill-opacity:1;stroke:#001728;stroke-width:0.79488707;stroke-miterlimit:1;stroke-dasharray:none;stroke-opacity:1"
     inkscape:export-xdpi="90"
     inkscape:export-ydpi="90" />
  <path
     style="fill:none;fill-rule:evenodd;stroke:#000000;stroke-width:1.00524926px;stroke-linecap:butt;stroke-linejoin:miter;stroke-opacity:1"
     d="m 8.4454202,20.746746 9.6904438,0"
     id="path6173"
     inkscape:connector-curvature="0" />
  <path
     style="fill:none;fill-rule:evenodd;stroke:#000000;stroke-width:1.07649124px;stroke-linecap:butt;stroke-linejoin:miter;stroke-opacity:1"
     d="m 16.564708,18.814978 2.173266,2.173265"
     id="path6175"
     inkscape:connector-curvature="0" />
  <path
     style="fill:none;fill-rule:evenodd;stroke:#000000;stroke-width:1.12031734px;stroke-linecap:butt;stroke-linejoin:miter;stroke-opacity:1"
     d="m 18.667344,20.345544 -1.990481,2.503788"
     id="path6175-5"
     inkscape:connector-curvature="0"
     inkscape:transform-center-x="-2.1863532"
     inkscape:transform-center-y="-0.52774019" />
</svg>
